<svg width="512" height="512" viewBox="0 0 512 512" xmlns="http://www.w3.org/2000/svg">
  <defs>
    <linearGradient id="gradient" x1="0%" y1="0%" x2="100%" y2="100%">
      <stop offset="0%" style="stop-color:#3b82f6;stop-opacity:1" />
      <stop offset="100%" style="stop-color:#1d4ed8;stop-opacity:1" />
    </linearGradient>
  </defs>
  
  <!-- Background circle -->
  <circle cx="256" cy="256" r="240" fill="url(#gradient)" stroke="white" stroke-width="8"/>
  
  <!-- Suitcase body -->
  <rect x="160" y="220" width="192" height="140" rx="12" fill="white" opacity="0.95"/>
  
  <!-- Suitcase handle -->
  <rect x="180" y="190" width="152" height="30" rx="15" fill="none" stroke="white" stroke-width="8"/>
  
  <!-- Suitcase details -->
  <rect x="170" y="240" width="172" height="4" fill="#3b82f6" opacity="0.6"/>
  <rect x="170" y="320" width="172" height="4" fill="#3b82f6" opacity="0.6"/>
  
  <!-- Lock -->
  <circle cx="256" cy="280" r="12" fill="#3b82f6"/>
  
  <!-- Travel route line -->
  <path d="M 100 150 Q 200 100 300 150 Q 400 200 450 150" stroke="white" stroke-width="6" fill="none" opacity="0.8"/>
  
  <!-- Location pins -->
  <circle cx="120" cy="160" r="8" fill="white"/>
  <circle cx="320" cy="140" r="8" fill="white"/>
  <circle cx="430" cy="160" r="8" fill="white"/>
  
  <!-- Pin drops -->
  <path d="M 120 168 L 116 178 L 124 178 Z" fill="white"/>
  <path d="M 320 148 L 316 158 L 324 158 Z" fill="white"/>
  <path d="M 430 168 L 426 178 L 434 178 Z" fill="white"/>
</svg>